<svg xmlns:xlink="http://www.w3.org/1999/xlink" _ngcontent-ng-c1366050719="" width="74" height="74" viewBox="0 0 74 74" fill="none" xmlns="http://www.w3.org/2000/svg"><path _ngcontent-ng-c1366050719="" d="M30.0626 37.0001C30.0626 33.1686 33.1686 30.0626 37.0001 30.0626C40.8316 30.0626 43.9376 33.1686 43.9376 37.0001C43.9376 40.8316 40.8316 43.9376 37.0001 43.9376C33.1686 43.9376 30.0626 40.8316 30.0626 37.0001Z" fill="#160948"></path><path _ngcontent-ng-c1366050719="" fill-rule="evenodd" clip-rule="evenodd" d="M26.4712 9.96629C29.4941 -0.626131 44.5057 -0.626135 47.5286 9.96629C48.4652 13.2482 51.837 15.1949 55.1475 14.3651C65.8323 11.6868 73.3381 24.6872 65.6762 32.6013C63.3023 35.0534 63.3023 38.9468 65.6762 41.3989C73.3381 49.313 65.8323 62.3134 55.1475 59.6351C51.837 58.8053 48.4652 60.752 47.5286 64.0339C44.5057 74.6263 29.4941 74.6263 26.4712 64.0339C25.5346 60.752 22.1628 58.8053 18.8523 59.6351C8.16753 62.3134 0.661761 49.313 8.3236 41.3989C10.6975 38.9468 10.6975 35.0534 8.3236 32.6013C0.661763 24.6872 8.16753 11.6868 18.8523 14.3651C22.1628 15.1949 25.5346 13.2482 26.4712 9.96629ZM37.0001 25.4376C30.6143 25.4376 25.4376 30.6143 25.4376 37.0001C25.4376 43.3859 30.6143 48.5626 37.0001 48.5626C43.3859 48.5626 48.5626 43.3859 48.5626 37.0001C48.5626 30.6143 43.3859 25.4376 37.0001 25.4376Z" fill="#160948"></path></svg>