<svg xmlns:xlink="http://www.w3.org/1999/xlink" _ngcontent-ng-c1366050719="" width="74" height="74" viewBox="0 0 74 74" fill="none" xmlns="http://www.w3.org/2000/svg"><path _ngcontent-ng-c1366050719="" d="M71 19.6875V51.75C71 54.2794 69.651 56.595 67.4501 57.8775V63.3281C67.4501 64.7887 66.2431 66 64.7877 66H63.0127C61.5572 66 60.3503 64.7887 60.3503 63.3281V58.875H35.5009V63.3281C35.5009 64.7887 34.2939 66 32.8384 66H31.0635C29.608 66 28.401 64.7887 28.401 63.3281V57.8775C26.2356 56.595 24.8511 54.2794 24.8511 51.75V19.6875C24.8511 9 35.5009 9 47.9256 9C60.3503 9 71 9 71 19.6875ZM39.0508 48.1875C39.0508 46.2281 37.4533 44.625 35.5009 44.625C33.5484 44.625 31.951 46.2281 31.951 48.1875C31.951 50.1469 33.5484 51.75 35.5009 51.75C37.4533 51.75 39.0508 50.1469 39.0508 48.1875ZM63.9002 48.1875C63.9002 46.2281 62.3027 44.625 60.3503 44.625C58.3978 44.625 56.8003 46.2281 56.8003 48.1875C56.8003 50.1469 58.3978 51.75 60.3503 51.75C62.3027 51.75 63.9002 50.1469 63.9002 48.1875ZM63.9002 19.6875H31.951V33.9375H63.9002V19.6875ZM17.7513 28.5938C17.6448 23.6775 13.5979 19.6875 8.69903 19.8656C6.34544 19.9133 4.10708 20.8971 2.47613 22.6007C0.845169 24.3042 -0.0448594 26.5881 0.00174199 28.95C0.048104 30.9706 0.775245 32.9159 2.06459 34.4686C3.35394 36.0213 5.12944 37.0899 7.10157 37.5V66H10.6515V37.5C14.8404 36.645 17.7513 32.9044 17.7513 28.5938Z" fill="#160948"></path></svg>