<svg xmlns:xlink="http://www.w3.org/1999/xlink" _ngcontent-ng-c1366050719="" width="74" height="74" viewBox="0 0 61 65" fill="none" xmlns="http://www.w3.org/2000/svg"><path _ngcontent-ng-c1366050719="" d="M19.75 28.9167C19.75 31.37 20.7245 33.7228 22.4593 35.4575C24.194 37.1922 26.5467 38.1667 29 38.1667C31.4533 38.1667 33.806 37.1922 35.5407 35.4575C37.2754 33.7228 38.25 31.37 38.25 28.9167C38.25 26.4635 37.2754 24.1107 35.5407 22.376C33.806 20.6413 31.4533 19.6667 29 19.6667C26.5467 19.6667 24.194 20.6413 22.4593 22.376C20.7245 24.1107 19.75 26.4635 19.75 28.9167Z" fill="#D9D9D9" stroke="#160948" stroke-width="7px" stroke-linecap="round" stroke-linejoin="round"></path><path _ngcontent-ng-c1366050719="" d="M28.5991 61.2301C27.1067 61.1354 25.7001 60.4996 24.6432 59.4418L11.5575 46.3592C8.48606 43.2863 6.28074 39.4566 5.16466 35.2577C4.04858 31.0588 4.06135 26.6396 5.20167 22.4472C6.34199 18.2548 8.56941 14.438 11.6586 11.3829C14.7477 8.32783 18.589 6.14287 22.7938 5.04909C26.9985 3.95531 31.4176 3.99154 35.6039 5.15409C39.7902 6.31665 43.5951 8.56429 46.6338 11.6696C49.6724 14.7749 51.837 18.6278 52.9084 22.8383C53.9799 27.0488 53.9202 31.4676 52.7354 35.6477M38.2499 53.5834L44.4166 59.7501L56.7499 47.4167" stroke="#160948" stroke-width="7px" stroke-linecap="round" stroke-linejoin="round" fill="none"></path></svg>